<svg width="41" height="40" viewBox="0 0 41 40" fill="none" xmlns="http://www.w3.org/2000/svg">
<path d="M0.75 20C0.75 31.0457 9.7043 40 20.75 40C31.7957 40 40.75 31.0457 40.75 20C40.75 8.9543 31.7957 0 20.75 0C9.7043 0 0.75 8.9543 0.75 20Z" fill="#1B76F2"/>
<path d="M17.7156 13.6342V16.6827H15.4053V20.4105H17.7156V31.4874H22.4616V20.4105H25.6464C25.6464 20.4105 25.9447 18.6227 26.0891 16.6686H22.4797V14.1195C22.4797 13.7389 22.9969 13.2265 23.5085 13.2265H26.0944V9.3457H22.5786C17.5981 9.34547 17.7156 13.0768 17.7156 13.6342Z" fill="white"/>
</svg>
