<svg width="40" height="40" viewBox="0 0 40 40" fill="none" xmlns="http://www.w3.org/2000/svg">
<path d="M0 20C0 8.9543 8.9543 0 20 0C31.0457 0 40 8.9543 40 20C40 31.0457 31.0457 40 20 40C8.9543 40 0 31.0457 0 20Z" fill="#00B900"/>
<path d="M20.3332 9.3335C13.5332 9.3335 8 13.791 8 19.2699C8 24.1818 12.3877 28.2954 18.3146 29.0733C18.7163 29.1592 19.2629 29.3362 19.4012 29.677C19.5256 29.9866 19.4825 30.4716 19.4409 30.7842C19.4409 30.7842 19.2962 31.6483 19.265 31.8323C19.2113 32.1419 19.0172 33.043 20.3332 32.4923C21.6497 31.9417 27.4361 28.3403 30.0236 25.3834C31.8105 23.4375 32.6667 21.4628 32.6667 19.2699C32.6667 13.791 27.1342 9.3335 20.3332 9.3335Z" fill="white"/>
<path d="M16.9047 16.6665C16.7733 16.6665 16.6665 16.7768 16.6665 16.9122V22.4208C16.6665 22.5565 16.7733 22.6665 16.9047 22.6665H17.7618C17.8933 22.6665 17.9998 22.5565 17.9998 22.4208V16.9122C17.9998 16.7768 17.8933 16.6665 17.7618 16.6665H16.9047Z" fill="#00B900"/>
<path d="M23.7493 16.6665H22.847C22.7087 16.6665 22.5965 16.7768 22.5965 16.9122V20.1849L20.0279 16.7758C20.022 16.7671 20.0154 16.7588 20.0085 16.7508L20.0067 16.7494C20.0018 16.7438 19.9969 16.739 19.9917 16.7341C19.9902 16.7327 19.9887 16.7315 19.987 16.73C19.9828 16.7261 19.9784 16.7225 19.9737 16.7191C19.9717 16.7172 19.9695 16.7157 19.9673 16.714C19.9628 16.7111 19.9587 16.7079 19.9542 16.7053C19.9518 16.7036 19.9493 16.7021 19.9466 16.7009C19.9421 16.6983 19.9377 16.6956 19.9333 16.6934C19.9305 16.6922 19.9281 16.6907 19.9254 16.6898C19.9207 16.6876 19.916 16.6854 19.9111 16.6837C19.9081 16.6827 19.9056 16.6818 19.9029 16.6808C19.898 16.6791 19.8931 16.6774 19.8879 16.6762C19.8852 16.6752 19.8822 16.6747 19.8793 16.6738C19.8743 16.6728 19.8696 16.6716 19.865 16.6706C19.8615 16.6701 19.8578 16.6697 19.8543 16.6694C19.8499 16.6684 19.8455 16.6682 19.841 16.6677C19.8368 16.6672 19.8326 16.6672 19.8282 16.667C19.825 16.667 19.8225 16.6665 19.8193 16.6665H18.9173C18.779 16.6665 18.6665 16.7768 18.6665 16.9122V22.4208C18.6665 22.5565 18.779 22.6665 18.9173 22.6665H19.8193C19.9579 22.6665 20.0701 22.5565 20.0701 22.4208V19.1491L22.6418 22.5625C22.6596 22.5873 22.6815 22.6074 22.7055 22.6234C22.7062 22.6239 22.7072 22.6246 22.7079 22.6253C22.7131 22.6285 22.7183 22.6316 22.7235 22.6345C22.7259 22.636 22.7282 22.6369 22.7306 22.6381C22.7343 22.6403 22.7385 22.6423 22.7425 22.644C22.7466 22.6457 22.7503 22.6474 22.7548 22.6491C22.7573 22.65 22.7597 22.651 22.7622 22.6517C22.7681 22.6539 22.7735 22.6556 22.7792 22.6573C22.7804 22.6573 22.7817 22.6578 22.7829 22.658C22.8034 22.6634 22.8248 22.6665 22.847 22.6665H23.7493C23.8879 22.6665 23.9998 22.5565 23.9998 22.4208V16.9122C23.9998 16.7768 23.8879 16.6665 23.7493 16.6665Z" fill="#00B900"/>
<path d="M15.7564 21.2871H13.3675V16.9127C13.3675 16.7768 13.2581 16.6665 13.1236 16.6665H12.2441C12.1093 16.6665 12 16.7768 12 16.9127V22.42V22.4205C12 22.4867 12.0262 22.5465 12.0682 22.5907C12.0692 22.5919 12.0702 22.5931 12.0716 22.5943C12.0728 22.5955 12.074 22.5965 12.0752 22.5977C12.1192 22.6403 12.1783 22.6665 12.2439 22.6665H15.7564C15.8912 22.6665 16 22.556 16 22.42V21.5333C16 21.3974 15.8912 21.2871 15.7564 21.2871Z" fill="#00B900"/>
<path d="M28.4233 18.0459C28.5581 18.0459 28.667 17.9359 28.667 17.7997V16.913C28.667 16.777 28.5581 16.6665 28.4233 16.6665H24.9111H24.9106C24.8448 16.6665 24.7855 16.6932 24.7415 16.7361C24.7405 16.737 24.7393 16.7378 24.7386 16.7387C24.7372 16.7402 24.736 16.7416 24.7348 16.7431C24.6929 16.7872 24.667 16.8468 24.667 16.9127V16.913V22.4203V22.4205C24.667 22.4867 24.6932 22.5465 24.7352 22.5907C24.7362 22.5919 24.7374 22.5933 24.7386 22.5943C24.7396 22.5955 24.741 22.5967 24.7422 22.5977C24.7859 22.6401 24.8453 22.6665 24.9106 22.6665H28.4233C28.5581 22.6665 28.667 22.556 28.667 22.4203V21.5333C28.667 21.3976 28.5581 21.2871 28.4233 21.2871H26.0347V20.3561H28.4233C28.5581 20.3561 28.667 20.2458 28.667 20.1099V19.2232C28.667 19.0872 28.5581 18.9767 28.4233 18.9767H26.0347V18.0459H28.4233Z" fill="#00B900"/>
</svg>
