<svg width="41" height="40" viewBox="0 0 41 40" fill="none" xmlns="http://www.w3.org/2000/svg">
<rect x="0.25" width="40" height="40" rx="20" fill="#0A66C2"/>
<g clip-path="url(#clip0_36_7088)">
<path d="M8.5835 11.446C8.5835 10.6953 8.84627 10.0759 9.37178 9.58794C9.8973 9.09994 10.5805 8.85596 11.4213 8.85596C12.2472 8.85596 12.9153 9.09618 13.4258 9.57668C13.9514 10.0722 14.2141 10.7178 14.2141 11.5136C14.2141 12.2343 13.9589 12.8349 13.4484 13.3154C12.9228 13.8109 12.2321 14.0587 11.3763 14.0587H11.3538C10.5279 14.0587 9.85978 13.8109 9.34926 13.3154C8.83874 12.8199 8.5835 12.1968 8.5835 11.446ZM8.87629 31.1533V16.1082H13.8763V31.1533H8.87629ZM16.6466 31.1533H21.6466V22.7524C21.6466 22.2268 21.7066 21.8214 21.8267 21.5361C22.0369 21.0256 22.356 20.5939 22.7839 20.2411C23.2119 19.8882 23.7487 19.7118 24.3943 19.7118C26.076 19.7118 26.9168 20.8454 26.9168 23.1127V31.1533H31.9168V22.5271C31.9168 20.3049 31.3913 18.6195 30.3403 17.4708C29.2892 16.3222 27.9003 15.7478 26.1736 15.7478C24.2366 15.7478 22.7276 16.5812 21.6466 18.2478V18.2929H21.624L21.6466 18.2478V16.1082H16.6466C16.6766 16.5887 16.6916 18.0827 16.6916 20.5902C16.6916 23.0977 16.6766 26.6187 16.6466 31.1533Z" fill="white"/>
</g>
<defs>
<clipPath id="clip0_36_7088">
<rect x="8.5835" y="8.3335" width="23.3333" height="23.3333" fill="white"/>
</clipPath>
</defs>
</svg>
