<svg width="41" height="40" viewBox="0 0 41 40" fill="none" xmlns="http://www.w3.org/2000/svg">
<rect x="0.5" width="40" height="40" rx="20" fill="url(#paint0_linear_518_13774)"/>
<path fill-rule="evenodd" clip-rule="evenodd" d="M9.5532 19.7889C15.3836 17.2487 19.2715 15.574 21.2168 14.7649C26.771 12.4547 27.9251 12.0534 28.6773 12.0402C28.8428 12.0373 29.2127 12.0783 29.4523 12.2727C29.6547 12.4369 29.7103 12.6587 29.737 12.8143C29.7636 12.97 29.7968 13.3246 29.7704 13.6017C29.4694 16.7641 28.1671 24.4386 27.5045 27.9806C27.2241 29.4794 26.6721 29.9819 26.1377 30.0311C24.9763 30.138 24.0943 29.2635 22.9694 28.5261C21.2091 27.3723 20.2147 26.654 18.5061 25.528C16.5314 24.2268 17.8115 23.5116 18.9368 22.3428C19.2313 22.0369 24.3487 17.3823 24.4477 16.96C24.4601 16.9072 24.4716 16.7104 24.3547 16.6065C24.2377 16.5025 24.0651 16.5381 23.9406 16.5663C23.764 16.6064 20.952 18.465 15.5044 22.1423C14.7063 22.6904 13.9833 22.9574 13.3355 22.9434C12.6214 22.928 11.2478 22.5397 10.2266 22.2077C8.9741 21.8006 7.97864 21.5853 8.06532 20.8939C8.11047 20.5337 8.60643 20.1654 9.5532 19.7889Z" fill="white"/>
<defs>
<linearGradient id="paint0_linear_518_13774" x1="20.5" y1="0" x2="20.5" y2="39.7033" gradientUnits="userSpaceOnUse">
<stop stop-color="#2AABEE"/>
<stop offset="1" stop-color="#229ED9"/>
</linearGradient>
</defs>
</svg>
