<svg width="40" height="40" viewBox="0 0 40 40" fill="none" xmlns="http://www.w3.org/2000/svg">
<path d="M20 0C8.95161 0 0 8.95161 0 20C0 31.0484 8.95161 40 20 40C31.0484 40 40 31.0484 40 20C40 8.95161 31.0484 0 20 0Z" fill="#5BBDFF"/>
<path d="M29.675 14.5978C28.9734 14.9026 28.2191 15.109 27.4272 15.2016C28.2354 14.7271 28.8562 13.9756 29.1481 13.0801C28.3918 13.5198 27.5545 13.8387 26.6629 14.0106C25.9494 13.2652 24.9321 12.7998 23.8063 12.7998C21.6451 12.7998 19.893 14.5163 19.893 16.6341C19.893 16.9346 19.9273 17.2274 19.9944 17.508C16.7417 17.3481 13.8584 15.8215 11.9281 13.5018C11.5914 14.0681 11.3983 14.7267 11.3983 15.4295C11.3983 16.7595 12.0892 17.9332 13.1392 18.6208C12.4977 18.6008 11.8942 18.4284 11.3668 18.1412C11.3664 18.1572 11.3664 18.1732 11.3664 18.1896C11.3664 20.0474 12.7151 21.5971 14.5055 21.9493C14.1771 22.0369 13.8313 22.084 13.4746 22.084C13.2221 22.084 12.9771 22.06 12.7383 22.015C13.236 23.5385 14.6813 24.647 16.3938 24.6779C15.0547 25.7066 13.3673 26.3195 11.5335 26.3195C11.2176 26.3195 10.906 26.3015 10.6001 26.2659C12.3321 27.3536 14.3889 27.9887 16.5992 27.9887C23.7971 27.9887 27.7335 22.1459 27.7335 17.0788C27.7335 16.9123 27.7299 16.747 27.7224 16.5824C28.4872 16.042 29.1505 15.367 29.675 14.5978Z" fill="white"/>
</svg>
