<svg width="40" height="40" viewBox="0 0 40 40" fill="none" xmlns="http://www.w3.org/2000/svg">
<path d="M0 20C0 8.9543 8.9543 0 20 0C31.0457 0 40 8.9543 40 20C40 31.0457 31.0457 40 20 40C8.9543 40 0 31.0457 0 20Z" fill="#4C6C91"/>
<path d="M21.0464 26.5637C21.0464 26.5637 21.4314 26.5217 21.6286 26.3138C21.8091 26.1233 21.8029 25.7638 21.8029 25.7638C21.8029 25.7638 21.7789 24.0851 22.5729 23.8373C23.3555 23.5935 24.3603 25.4606 25.4266 26.1786C26.2322 26.7215 26.8436 26.6026 26.8436 26.6026L29.6932 26.5637C29.6932 26.5637 31.1831 26.4736 30.4768 25.3234C30.4183 25.2292 30.0646 24.4723 28.3586 22.9175C26.5713 21.2901 26.8112 21.5533 28.9628 18.7377C30.2733 17.0232 30.7971 15.9764 30.6333 15.5289C30.4778 15.1007 29.5137 15.2144 29.5137 15.2144L26.3062 15.2339C26.3062 15.2339 26.0683 15.2021 25.892 15.3056C25.7198 15.407 25.6082 15.6436 25.6082 15.6436C25.6082 15.6436 25.1011 16.9699 24.4239 18.0986C22.9955 20.4789 22.4247 20.6049 22.191 20.4574C21.6474 20.1122 21.783 19.0726 21.783 18.3342C21.783 16.0266 22.1399 15.0649 21.0892 14.816C20.7407 14.7331 20.484 14.6788 19.5919 14.6696C18.4472 14.6583 17.4789 14.6737 16.9301 14.9369C16.5649 15.112 16.2832 15.5033 16.4554 15.5258C16.6672 15.5534 17.1471 15.6528 17.4017 15.9928C17.7304 16.4322 17.7189 17.4175 17.7189 17.4175C17.7189 17.4175 17.9078 20.1337 17.2776 20.4707C16.8456 20.7022 16.2529 20.23 14.9789 18.0699C14.3268 16.9638 13.8343 15.7409 13.8343 15.7409C13.8343 15.7409 13.7394 15.5125 13.5693 15.3896C13.3637 15.2411 13.0768 15.195 13.0768 15.195L10.029 15.2144C10.029 15.2144 9.57091 15.2267 9.40292 15.4224C9.25371 15.5954 9.39145 15.9549 9.39145 15.9549C9.39145 15.9549 11.7777 21.4355 14.4802 24.1978C16.9583 26.7296 19.7713 26.5637 19.7713 26.5637H21.0464Z" fill="white"/>
</svg>
